if (_typeface_js && _typeface_js.loadFace) _typeface_js.loadFace({"glyphs":{"S":{"x_min":63,"x_max":593,"ha":656,"o":"m 492 505 l 542 454 l 492 404 l 164 404 l 113 454 l 164 505 l 492 505 m 567 441 l 593 416 l 593 63 q 529 0 580 12 l 492 101 l 492 366 l 567 441 m 504 0 l 126 0 q 63 63 75 12 l 164 101 l 466 101 l 504 0 m 164 782 l 164 542 l 88 467 l 63 492 l 63 820 l 164 782 m 165 808 l 64 845 q 127 909 76 896 l 529 909 q 593 845 580 896 l 492 808 l 165 808 "},"/":{"x_min":63.125,"x_max":593.4375,"ha":657,"o":"m 342 603 l 492 909 q 593 858 568 909 l 398 467 l 342 467 l 342 603 m 314 305 l 164 0 q 63 50 88 0 l 257 441 l 314 441 l 314 305 "},"K":{"x_min":63,"x_max":593,"ha":656,"o":"m 492 505 l 542 454 l 492 404 l 164 404 l 113 454 l 164 505 l 492 505 m 567 441 l 593 416 l 593 63 q 529 0 580 12 l 492 101 l 492 366 l 567 441 m 188 605 l 492 909 q 593 858 567 909 l 264 530 l 188 530 l 188 605 m 164 366 l 164 101 l 126 0 q 63 63 75 12 l 63 416 l 88 441 l 164 366 m 88 467 l 63 492 l 63 845 q 126 909 75 896 l 164 807 l 164 542 l 88 467 "},"7":{"x_min":63,"x_max":593,"ha":656,"o":"m 567 441 l 593 416 l 593 63 q 529 0 580 12 l 492 101 l 492 366 l 567 441 m 466 808 l 165 808 l 64 845 q 127 909 76 896 l 504 909 l 466 808 m 164 782 l 164 542 l 88 467 l 63 492 l 63 820 l 164 782 m 492 542 l 492 808 l 529 909 q 593 845 580 896 l 593 492 l 567 467 l 492 542 "},"d":{"x_min":63,"x_max":593,"ha":656,"o":"m 63 88 l 63 416 l 88 441 l 164 366 l 164 126 l 63 88 m 467 808 l 164 808 l 63 845 l 63 909 l 467 909 l 517 858 l 467 808 m 164 782 l 164 542 l 88 467 l 63 492 l 63 820 l 164 782 m 492 542 l 492 808 l 529 845 l 593 782 l 593 492 l 567 467 l 492 542 m 567 441 l 593 416 l 593 126 l 529 63 l 492 101 l 492 366 l 567 441 m 516 50 l 465 0 l 63 0 l 63 63 l 164 101 l 465 101 l 516 50 "},",":{"x_min":63,"x_max":164,"ha":227,"o":"m 164 -101 l 113 -152 l 63 -101 l 63 101 l 164 101 l 164 -101 "},"Y":{"x_min":63,"x_max":593,"ha":656,"o":"m 492 505 l 542 454 l 492 404 l 164 404 l 113 454 l 164 505 l 492 505 m 567 441 l 593 416 l 593 63 q 529 0 580 12 l 492 101 l 492 366 l 567 441 m 504 0 l 126 0 q 63 63 75 12 l 164 101 l 466 101 l 504 0 m 164 820 l 164 542 l 88 467 l 63 492 l 63 858 l 164 820 m 492 542 l 492 807 l 529 909 q 593 845 580 896 l 593 492 l 567 467 l 492 542 "},"E":{"x_min":62.984375,"x_max":542.9375,"ha":606,"o":"m 492 505 l 542 454 l 492 404 l 164 404 l 113 454 l 164 505 l 492 505 m 542 0 l 126 0 q 62 63 75 12 l 164 101 l 504 101 l 542 0 m 63 88 l 63 416 l 88 441 l 164 366 l 164 126 l 63 88 m 505 808 l 165 808 l 64 845 q 127 909 77 896 l 542 909 l 505 808 m 164 782 l 164 542 l 88 467 l 63 492 l 63 820 l 164 782 "},"y":{"x_min":63,"x_max":593,"ha":656,"o":"m 492 505 l 542 454 l 492 404 l 164 404 l 113 454 l 164 505 l 492 505 m 567 441 l 593 416 l 593 63 q 529 0 580 12 l 492 101 l 492 366 l 567 441 m 504 0 l 126 0 q 63 63 75 12 l 164 101 l 466 101 l 504 0 m 164 820 l 164 542 l 88 467 l 63 492 l 63 858 l 164 820 m 492 542 l 492 807 l 529 909 q 593 845 580 896 l 593 492 l 567 467 l 492 542 "},"\"":{"x_min":63,"x_max":367,"ha":430,"o":"m 164 707 l 113 657 l 63 707 l 63 909 l 164 909 l 164 707 m 367 708 l 316 658 l 266 708 l 266 910 l 367 910 l 367 708 "},"g":{"x_min":62.984375,"x_max":593,"ha":656,"o":"m 492 505 l 542 454 l 492 404 l 378 404 l 327 454 l 378 505 l 492 505 m 567 441 l 593 416 l 593 63 q 529 0 580 12 l 492 101 l 492 366 l 567 441 m 504 0 l 126 0 q 62 63 75 12 l 164 101 l 466 101 l 504 0 m 63 88 l 63 416 l 88 441 l 164 366 l 164 126 l 63 88 m 504 808 l 165 808 l 64 845 q 127 909 76 896 l 542 909 l 504 808 m 164 782 l 164 542 l 88 467 l 63 492 l 63 820 l 164 782 "},"–":{"x_min":63.125,"x_max":618.6875,"ha":682,"o":"m 568 505 l 618 454 l 568 404 l 113 404 l 63 454 l 113 505 l 568 505 "},"e":{"x_min":62.984375,"x_max":542.9375,"ha":606,"o":"m 492 505 l 542 454 l 492 404 l 164 404 l 113 454 l 164 505 l 492 505 m 542 0 l 126 0 q 62 63 75 12 l 164 101 l 504 101 l 542 0 m 63 88 l 63 416 l 88 441 l 164 366 l 164 126 l 63 88 m 505 808 l 165 808 l 64 845 q 127 909 77 896 l 542 909 l 505 808 m 164 782 l 164 542 l 88 467 l 63 492 l 63 820 l 164 782 "},"J":{"x_min":62.984375,"x_max":593,"ha":656,"o":"m 567 441 l 593 416 l 593 63 q 529 0 580 12 l 492 101 l 492 366 l 567 441 m 504 0 l 126 0 q 62 63 75 12 l 164 101 l 466 101 l 504 0 m 63 88 l 63 416 l 88 441 l 164 366 l 164 126 l 63 88 m 492 542 l 492 807 l 529 909 q 593 845 580 896 l 593 492 l 567 467 l 492 542 "},"|":{"x_min":63,"x_max":164,"ha":227,"o":"m 164 63 q 100 0 151 12 l 63 101 l 63 808 l 100 909 q 164 845 151 896 l 164 63 "},"©":{"x_min":62.984375,"x_max":669,"ha":732,"o":"m 580 0 l 126 0 q 62 63 75 12 l 164 101 l 542 101 l 580 0 m 542 808 l 165 808 l 64 845 q 127 909 76 896 l 580 909 l 542 808 m 164 126 l 63 88 l 63 820 l 164 782 l 164 126 m 669 63 q 605 0 656 12 l 568 101 l 568 808 l 605 909 q 669 845 656 896 l 669 63 m 479 606 l 316 606 l 214 643 q 278 707 227 694 l 517 707 l 479 606 m 316 580 l 316 302 l 278 201 q 215 265 227 214 l 215 618 l 316 580 m 341 303 l 417 303 l 518 265 q 454 202 505 214 l 303 202 l 341 303 "},"^":{"x_min":63.125,"x_max":592.171875,"ha":655,"o":"m 339 770 l 339 909 l 592 656 l 592 605 l 542 568 l 339 770 m 112 568 l 63 605 l 63 656 l 315 909 l 314 770 l 112 568 "},"q":{"x_min":62.984375,"x_max":606.0625,"ha":669,"o":"m 567 441 l 593 416 l 593 113 l 492 214 l 492 366 l 567 441 m 479 0 l 126 0 q 62 63 75 12 l 164 101 l 378 101 l 479 0 m 63 88 l 63 416 l 88 441 l 164 366 l 164 126 l 63 88 m 466 808 l 165 808 l 64 845 q 127 909 76 896 l 504 909 l 466 808 m 164 782 l 164 542 l 88 467 l 63 492 l 63 820 l 164 782 m 492 542 l 492 808 l 529 909 q 593 845 580 896 l 593 492 l 567 467 l 492 542 m 366 226 l 441 226 l 606 62 l 606 -13 l 530 -13 l 366 151 l 366 226 "},"b":{"x_min":63,"x_max":593,"ha":656,"o":"m 492 505 l 542 454 l 492 404 l 164 404 l 113 454 l 164 505 l 492 505 m 63 88 l 63 416 l 88 441 l 164 366 l 164 126 l 63 88 m 467 808 l 164 808 l 63 845 l 63 909 l 467 909 l 517 858 l 467 808 m 164 782 l 164 542 l 88 467 l 63 492 l 63 820 l 164 782 m 492 542 l 492 808 l 529 845 l 593 782 l 593 492 l 567 467 l 492 542 m 567 441 l 593 416 l 593 126 l 529 63 l 492 101 l 492 366 l 567 441 m 516 50 l 465 0 l 63 0 l 63 63 l 164 101 l 465 101 l 516 50 "},"D":{"x_min":63,"x_max":593,"ha":656,"o":"m 63 88 l 63 416 l 88 441 l 164 366 l 164 126 l 63 88 m 467 808 l 164 808 l 63 845 l 63 909 l 467 909 l 517 858 l 467 808 m 164 782 l 164 542 l 88 467 l 63 492 l 63 820 l 164 782 m 492 542 l 492 808 l 529 845 l 593 782 l 593 492 l 567 467 l 492 542 m 567 441 l 593 416 l 593 126 l 529 63 l 492 101 l 492 366 l 567 441 m 516 50 l 465 0 l 63 0 l 63 63 l 164 101 l 465 101 l 516 50 "},"z":{"x_min":63.125,"x_max":593.4375,"ha":657,"o":"m 542 0 l 189 0 l 239 101 l 505 101 l 542 0 m 416 808 l 165 808 l 64 845 q 127 909 77 896 l 467 909 l 416 808 m 328 542 l 492 909 q 593 858 568 909 l 404 467 l 328 467 l 328 542 m 340 366 l 164 0 q 63 50 88 0 l 265 441 l 340 441 l 340 366 "},"w":{"x_min":63,"x_max":594,"ha":657,"o":"m 379 126 l 278 126 l 278 416 l 328 467 l 379 416 l 379 126 m 493 542 l 493 807 l 530 909 q 594 845 581 896 l 594 492 l 568 467 l 493 542 m 505 0 l 127 0 q 64 63 76 12 l 165 101 l 467 101 l 505 0 m 63 88 l 63 416 l 88 441 l 164 366 l 164 126 l 63 88 m 568 441 l 594 416 l 594 63 q 530 0 581 12 l 493 101 l 493 366 l 568 441 m 88 467 l 63 492 l 63 845 q 126 909 75 896 l 164 807 l 164 542 l 88 467 "},"$":{"x_min":63,"x_max":593.4375,"ha":656,"o":"m 492 505 l 542 454 l 492 404 l 163 404 l 113 454 l 163 505 l 492 505 m 567 441 l 593 416 l 593 62 q 529 0 580 12 l 492 100 l 492 366 l 567 441 m 504 0 l 126 0 q 63 63 75 12 l 164 101 l 466 101 l 504 0 m 164 783 l 164 543 l 88 467 l 63 492 l 63 820 l 164 783 m 165 808 l 64 845 q 127 909 77 896 l 530 909 q 593 845 580 896 l 492 808 l 165 808 m 290 947 l 290 1010 l 340 1061 l 391 1010 l 391 947 l 290 947 m 290 543 l 290 770 l 391 770 l 391 543 l 290 543 m 290 139 l 290 366 l 391 366 l 391 139 l 290 139 m 391 -38 l 391 -101 l 340 -152 l 290 -101 l 290 -38 l 391 -38 "},"\\":{"x_min":63.125,"x_max":590.90625,"ha":654,"o":"m 339 441 l 396 441 l 590 50 q 489 0 565 0 l 339 305 l 339 441 m 314 467 l 257 467 l 63 858 q 164 909 88 909 l 314 602 l 314 467 "},"’":{"x_min":63,"x_max":164,"ha":227,"o":"m 164 707 l 113 657 l 63 707 l 63 909 l 164 909 l 164 707 "},"~":{"x_min":63.125,"x_max":618.6875,"ha":682,"o":"m 366 606 l 416 555 l 366 505 l 315 505 l 265 555 l 315 606 l 366 606 m 164 605 l 214 554 l 164 504 l 113 504 l 63 554 l 113 605 l 164 605 m 568 606 l 618 555 l 568 505 l 517 505 l 467 555 l 517 606 l 568 606 m 265 682 l 315 631 l 265 581 l 214 581 l 164 631 l 214 682 l 265 682 m 467 518 l 517 467 l 467 417 l 416 417 l 366 467 l 416 518 l 467 518 "},"-":{"x_min":63.125,"x_max":492.421875,"ha":556,"o":"m 441 505 l 492 454 l 441 404 l 113 404 l 63 454 l 113 505 l 441 505 "},"Q":{"x_min":62.984375,"x_max":606.0625,"ha":669,"o":"m 567 441 l 593 416 l 593 113 l 492 214 l 492 366 l 567 441 m 479 0 l 126 0 q 62 63 75 12 l 164 101 l 378 101 l 479 0 m 63 88 l 63 416 l 88 441 l 164 366 l 164 126 l 63 88 m 466 808 l 165 808 l 64 845 q 127 909 76 896 l 504 909 l 466 808 m 164 782 l 164 542 l 88 467 l 63 492 l 63 820 l 164 782 m 492 542 l 492 808 l 529 909 q 593 845 580 896 l 593 492 l 567 467 l 492 542 m 366 226 l 441 226 l 606 62 l 606 -13 l 530 -13 l 366 151 l 366 226 "},"M":{"x_min":63,"x_max":594,"ha":657,"o":"m 379 492 l 328 441 l 278 492 l 278 782 l 379 782 l 379 492 m 568 441 l 594 416 l 594 63 q 530 0 581 12 l 493 101 l 493 366 l 568 441 m 467 808 l 165 808 l 64 845 q 127 909 76 896 l 505 909 l 467 808 m 164 782 l 164 542 l 88 467 l 63 492 l 63 820 l 164 782 m 493 542 l 493 808 l 530 909 q 594 845 581 896 l 594 492 l 568 467 l 493 542 m 164 366 l 164 101 l 126 0 q 63 63 75 12 l 63 416 l 88 441 l 164 366 "},"C":{"x_min":62.984375,"x_max":542.9375,"ha":606,"o":"m 542 0 l 126 0 q 62 63 75 12 l 164 101 l 504 101 l 542 0 m 63 88 l 63 416 l 88 441 l 164 366 l 164 126 l 63 88 m 505 808 l 165 808 l 64 845 q 127 909 77 896 l 542 909 l 505 808 m 164 782 l 164 542 l 88 467 l 63 492 l 63 820 l 164 782 "},"[":{"x_min":63,"x_max":328.28125,"ha":391,"o":"m 63 88 l 63 416 l 88 441 l 164 366 l 164 126 l 63 88 m 252 808 l 165 808 l 64 845 q 127 909 77 896 l 303 909 l 328 883 l 252 808 m 164 782 l 164 542 l 88 467 l 63 492 l 63 820 l 164 782 m 328 25 l 303 0 l 127 0 q 64 63 77 12 l 165 101 l 252 101 l 328 25 "},"L":{"x_min":63,"x_max":593.296875,"ha":657,"o":"m 164 366 l 164 101 l 126 0 q 63 63 75 12 l 63 416 l 88 441 l 164 366 m 189 101 l 492 101 l 593 63 q 530 0 580 12 l 151 0 l 189 101 m 88 467 l 63 492 l 63 845 q 126 909 75 896 l 164 807 l 164 542 l 88 467 "},"!":{"x_min":63,"x_max":164,"ha":227,"o":"m 138 441 l 164 416 l 164 202 l 63 202 l 63 366 l 138 441 m 63 542 l 63 807 l 100 909 q 164 845 151 896 l 164 492 l 138 467 l 63 542 m 164 0 l 63 0 l 63 101 l 164 101 l 164 0 "}," ":{"x_min":0,"x_max":0,"ha":379},"{":{"x_min":63.125,"x_max":479.796875,"ha":543,"o":"m 215 88 l 215 366 l 290 441 l 316 416 l 316 126 l 215 88 m 404 808 l 316 808 l 215 845 q 279 909 228 896 l 454 909 l 479 883 l 404 808 m 316 782 l 316 492 l 290 467 l 215 542 l 215 820 l 316 782 m 479 25 l 454 0 l 279 0 q 215 63 228 12 l 316 101 l 404 101 l 479 25 m 202 505 l 252 454 l 202 404 l 113 404 l 63 454 l 113 505 l 202 505 "},"X":{"x_min":62.734375,"x_max":593.265625,"ha":657,"o":"m 341 441 l 397 441 l 592 50 q 491 0 567 0 l 341 305 l 341 441 m 342 603 l 492 909 q 593 858 568 909 l 398 467 l 342 467 l 342 603 m 314 305 l 163 0 q 62 50 88 0 l 257 441 l 314 441 l 314 305 m 315 467 l 258 467 l 63 858 q 164 909 88 909 l 315 602 l 315 467 "},"P":{"x_min":63,"x_max":593,"ha":656,"o":"m 492 505 l 542 454 l 492 404 l 164 404 l 113 454 l 164 505 l 492 505 m 467 808 l 164 808 l 63 845 l 63 909 l 467 909 l 517 858 l 467 808 m 164 782 l 164 542 l 88 467 l 63 492 l 63 820 l 164 782 m 492 542 l 492 808 l 529 845 l 593 782 l 593 492 l 567 467 l 492 542 m 164 366 l 164 101 l 126 0 q 63 63 75 12 l 63 416 l 88 441 l 164 366 "},"%":{"x_min":63,"x_max":694,"ha":757,"o":"m 392 603 l 542 909 q 643 858 618 909 l 448 467 l 392 467 l 392 603 m 365 305 l 214 0 q 113 50 138 0 l 308 441 l 365 441 l 365 305 m 239 807 l 164 807 l 63 845 q 126 909 75 896 l 277 909 l 239 807 m 164 782 l 164 707 l 126 606 q 63 669 75 618 l 63 820 l 164 782 m 189 707 l 265 707 l 366 669 q 302 606 353 618 l 151 606 l 189 707 m 265 732 l 265 808 l 302 909 q 366 845 353 896 l 366 694 l 265 732 m 593 126 l 593 202 l 630 303 q 694 239 681 290 l 694 88 l 593 126 m 567 201 l 492 201 l 391 239 q 454 303 403 290 l 605 303 l 567 201 m 492 176 l 492 101 l 454 0 q 391 63 403 12 l 391 214 l 492 176 m 517 101 l 593 101 l 694 63 q 630 0 681 12 l 479 0 l 517 101 "},"#":{"x_min":63.125,"x_max":618.6875,"ha":682,"o":"m 366 606 l 416 555 l 366 505 l 315 505 l 265 555 l 315 606 l 366 606 m 366 404 l 416 353 l 366 303 l 315 303 l 265 353 l 315 404 l 366 404 m 189 479 l 239 530 l 290 479 l 290 429 l 239 378 l 189 429 l 189 479 m 391 479 l 441 530 l 492 479 l 492 429 l 441 378 l 391 429 l 391 479 m 189 707 l 239 758 l 290 707 l 290 631 l 239 581 l 189 631 l 189 707 m 391 707 l 441 758 l 492 707 l 492 631 l 441 581 l 391 631 l 391 707 m 391 279 l 441 330 l 492 279 l 492 202 l 441 152 l 391 202 l 391 279 m 189 277 l 239 328 l 290 277 l 290 200 l 239 150 l 189 200 l 189 277 m 164 404 l 214 353 l 164 303 l 113 303 l 63 353 l 113 404 l 164 404 m 568 403 l 618 352 l 568 302 l 517 302 l 467 352 l 517 403 l 568 403 m 568 606 l 618 555 l 568 505 l 517 505 l 467 555 l 517 606 l 568 606 m 164 605 l 214 554 l 164 504 l 113 504 l 63 554 l 113 605 l 164 605 "},"_":{"x_min":63.125,"x_max":592.171875,"ha":655,"o":"m 491 101 l 592 63 q 529 0 579 12 l 126 0 q 63 63 75 12 l 164 101 l 491 101 "},"+":{"x_min":62.859375,"x_max":492.140625,"ha":556,"o":"m 227 505 l 227 618 l 277 669 l 328 618 l 328 505 l 441 505 l 492 454 l 441 404 l 328 404 l 328 290 l 277 240 l 227 290 l 227 404 l 113 404 l 62 454 l 113 505 l 227 505 "},")":{"x_min":63.125,"x_max":379,"ha":442,"o":"m 113 101 l 252 101 l 303 50 l 252 0 l 113 0 l 63 50 l 113 101 m 353 441 l 379 416 l 379 126 l 315 63 l 278 101 l 278 366 l 353 441 m 63 858 l 113 909 l 252 909 l 303 858 l 252 808 l 113 808 l 63 858 m 278 542 l 278 808 l 315 845 l 379 782 l 379 492 l 353 467 l 278 542 "},"'":{"x_min":63,"x_max":164,"ha":227,"o":"m 164 707 l 113 657 l 63 707 l 63 909 l 164 909 l 164 707 "},"}":{"x_min":63.125,"x_max":479.796875,"ha":543,"o":"m 227 126 l 227 416 l 252 441 l 328 366 l 328 88 l 227 126 m 63 883 l 88 909 l 263 909 q 327 845 314 896 l 226 808 l 138 808 l 63 883 m 328 820 l 328 542 l 252 467 l 227 492 l 227 782 l 328 820 m 138 101 l 226 101 l 327 63 q 263 0 314 12 l 88 0 l 63 25 l 138 101 m 429 505 l 479 454 l 429 404 l 340 404 l 290 454 l 340 505 l 429 505 "},"‰":{"x_min":63,"x_max":682,"ha":745,"o":"m 352 503 l 150 303 q 75 377 74 301 l 314 617 l 352 617 l 352 503 m 176 807 l 164 807 l 63 845 q 126 909 75 896 l 214 909 l 176 807 m 164 782 l 164 707 l 126 606 q 63 669 75 618 l 63 820 l 164 782 m 189 707 l 201 707 l 302 669 q 239 606 290 618 l 151 606 l 189 707 m 201 732 l 201 808 l 239 909 q 303 845 290 896 l 303 694 l 201 732 m 555 202 l 542 202 l 441 240 q 505 303 454 290 l 593 303 l 555 202 m 544 176 l 544 101 l 506 0 q 443 63 455 12 l 443 214 l 544 176 m 568 101 l 580 101 l 682 63 q 618 0 669 12 l 530 0 l 568 101 m 581 126 l 581 202 l 618 303 q 682 240 669 290 l 682 88 l 581 126 m 289 126 l 289 202 l 327 303 q 391 239 378 290 l 391 88 l 289 126 m 277 100 l 290 100 l 391 62 q 328 -1 378 11 l 239 -1 l 277 100 m 252 176 l 252 101 l 214 0 q 151 63 163 12 l 151 214 l 252 176 m 264 202 l 252 202 l 151 240 q 214 303 163 290 l 302 303 l 264 202 m 366 670 l 568 871 q 642 796 643 872 l 404 555 l 366 556 l 366 670 "},"a":{"x_min":63,"x_max":593,"ha":656,"o":"m 492 505 l 542 454 l 492 404 l 164 404 l 113 454 l 164 505 l 492 505 m 567 441 l 593 416 l 593 63 q 529 0 580 12 l 492 101 l 492 366 l 567 441 m 466 808 l 165 808 l 64 845 q 127 909 76 896 l 504 909 l 466 808 m 164 782 l 164 542 l 88 467 l 63 492 l 63 820 l 164 782 m 492 542 l 492 808 l 529 909 q 593 845 580 896 l 593 492 l 567 467 l 492 542 m 164 366 l 164 101 l 126 0 q 63 63 75 12 l 63 416 l 88 441 l 164 366 "},"T":{"x_min":63.125,"x_max":592.171875,"ha":655,"o":"m 327 441 l 378 391 l 378 63 q 314 0 365 12 l 277 101 l 277 391 l 327 441 m 277 517 l 277 782 l 378 782 l 378 517 l 327 467 l 277 517 m 164 808 l 63 845 q 126 909 75 896 l 529 909 q 592 845 579 896 l 491 808 l 164 808 "},"—":{"x_min":63.125,"x_max":669.1875,"ha":732,"o":"m 618 505 l 669 454 l 618 404 l 113 404 l 63 454 l 113 505 l 618 505 "},"=":{"x_min":63.125,"x_max":492.421875,"ha":556,"o":"m 441 606 l 492 555 l 441 505 l 113 505 l 63 555 l 113 606 l 441 606 m 441 403 l 492 352 l 441 302 l 113 302 l 63 352 l 113 403 l 441 403 "},"N":{"x_min":63,"x_max":593,"ha":656,"o":"m 164 366 l 164 101 l 126 0 q 63 63 75 12 l 63 416 l 88 441 l 164 366 m 467 530 l 378 530 l 189 719 l 189 795 l 265 795 l 467 593 l 467 530 m 567 441 l 593 416 l 593 63 q 529 0 580 12 l 492 101 l 492 366 l 567 441 m 492 529 l 492 794 l 529 896 q 593 832 580 883 l 593 479 l 567 454 l 492 529 m 88 454 l 63 479 l 63 832 q 126 896 75 883 l 164 794 l 164 529 l 88 454 "},"2":{"x_min":62.984375,"x_max":593,"ha":656,"o":"m 492 505 l 542 454 l 492 404 l 164 404 l 113 454 l 164 505 l 492 505 m 542 0 l 126 0 q 62 63 75 12 l 164 101 l 504 101 l 542 0 m 63 88 l 63 416 l 88 441 l 164 366 l 164 126 l 63 88 m 466 808 l 165 808 l 64 845 q 127 909 76 896 l 504 909 l 466 808 m 492 542 l 492 808 l 529 909 q 593 845 580 896 l 593 492 l 567 467 l 492 542 "},"j":{"x_min":62.984375,"x_max":593,"ha":656,"o":"m 567 441 l 593 416 l 593 63 q 529 0 580 12 l 492 101 l 492 366 l 567 441 m 504 0 l 126 0 q 62 63 75 12 l 164 101 l 466 101 l 504 0 m 63 88 l 63 416 l 88 441 l 164 366 l 164 126 l 63 88 m 492 542 l 492 807 l 529 909 q 593 845 580 896 l 593 492 l 567 467 l 492 542 "},"Z":{"x_min":63.125,"x_max":593.4375,"ha":657,"o":"m 542 0 l 189 0 l 239 101 l 505 101 l 542 0 m 416 808 l 165 808 l 64 845 q 127 909 77 896 l 467 909 l 416 808 m 328 542 l 492 909 q 593 858 568 909 l 404 467 l 328 467 l 328 542 m 340 366 l 164 0 q 63 50 88 0 l 265 441 l 340 441 l 340 366 "},"u":{"x_min":62.984375,"x_max":593,"ha":656,"o":"m 567 441 l 593 416 l 593 63 q 529 0 580 12 l 492 101 l 492 366 l 567 441 m 504 0 l 126 0 q 62 63 75 12 l 164 101 l 466 101 l 504 0 m 63 88 l 63 416 l 88 441 l 164 366 l 164 126 l 63 88 m 492 542 l 492 807 l 529 909 q 593 845 580 896 l 593 492 l 567 467 l 492 542 m 88 454 l 63 479 l 63 833 q 126 896 75 883 l 164 795 l 164 530 l 88 454 "},"1":{"x_min":63,"x_max":164,"ha":227,"o":"m 138 441 l 164 416 l 164 63 q 100 0 151 12 l 63 101 l 63 366 l 138 441 m 63 542 l 63 807 l 100 909 q 164 845 151 896 l 164 492 l 138 467 l 63 542 "},"k":{"x_min":63,"x_max":593,"ha":656,"o":"m 492 505 l 542 454 l 492 404 l 164 404 l 113 454 l 164 505 l 492 505 m 567 441 l 593 416 l 593 63 q 529 0 580 12 l 492 101 l 492 366 l 567 441 m 188 605 l 492 909 q 593 858 567 909 l 264 530 l 188 530 l 188 605 m 164 366 l 164 101 l 126 0 q 63 63 75 12 l 63 416 l 88 441 l 164 366 m 88 467 l 63 492 l 63 845 q 126 909 75 896 l 164 807 l 164 542 l 88 467 "},"<":{"x_min":63.125,"x_max":404.046875,"ha":467,"o":"m 202 467 l 63 467 l 315 720 l 366 720 l 404 670 l 202 467 m 404 238 l 366 189 l 315 189 l 63 441 l 202 441 l 404 238 "},"t":{"x_min":63.125,"x_max":592.171875,"ha":655,"o":"m 327 441 l 378 391 l 378 63 q 314 0 365 12 l 277 101 l 277 391 l 327 441 m 277 517 l 277 782 l 378 782 l 378 517 l 327 467 l 277 517 m 164 808 l 63 845 q 126 909 75 896 l 529 909 q 592 845 579 896 l 491 808 l 164 808 "},"W":{"x_min":63,"x_max":594,"ha":657,"o":"m 379 126 l 278 126 l 278 416 l 328 467 l 379 416 l 379 126 m 493 542 l 493 807 l 530 909 q 594 845 581 896 l 594 492 l 568 467 l 493 542 m 505 0 l 127 0 q 64 63 76 12 l 165 101 l 467 101 l 505 0 m 63 88 l 63 416 l 88 441 l 164 366 l 164 126 l 63 88 m 568 441 l 594 416 l 594 63 q 530 0 581 12 l 493 101 l 493 366 l 568 441 m 88 467 l 63 492 l 63 845 q 126 909 75 896 l 164 807 l 164 542 l 88 467 "},"v":{"x_min":63,"x_max":593,"ha":656,"o":"m 88 454 l 63 479 l 63 832 q 126 896 75 883 l 164 794 l 164 529 l 88 454 m 492 529 l 492 794 l 529 896 q 593 832 580 883 l 593 479 l 567 454 l 492 529 m 315 151 l 315 0 l 63 328 l 63 404 l 88 429 l 164 353 l 315 151 m 492 353 l 567 429 l 593 404 l 593 328 l 340 0 l 340 151 l 492 353 "},">":{"x_min":63.125,"x_max":404.046875,"ha":467,"o":"m 63 670 l 101 720 l 151 720 l 404 467 l 265 467 l 63 670 m 265 441 l 404 441 l 151 189 l 101 189 l 63 238 l 265 441 "},"s":{"x_min":63,"x_max":593,"ha":656,"o":"m 492 505 l 542 454 l 492 404 l 164 404 l 113 454 l 164 505 l 492 505 m 567 441 l 593 416 l 593 63 q 529 0 580 12 l 492 101 l 492 366 l 567 441 m 504 0 l 126 0 q 63 63 75 12 l 164 101 l 466 101 l 504 0 m 164 782 l 164 542 l 88 467 l 63 492 l 63 820 l 164 782 m 165 808 l 64 845 q 127 909 76 896 l 529 909 q 593 845 580 896 l 492 808 l 165 808 "},"B":{"x_min":63,"x_max":593,"ha":656,"o":"m 492 505 l 542 454 l 492 404 l 164 404 l 113 454 l 164 505 l 492 505 m 63 88 l 63 416 l 88 441 l 164 366 l 164 126 l 63 88 m 467 808 l 164 808 l 63 845 l 63 909 l 467 909 l 517 858 l 467 808 m 164 782 l 164 542 l 88 467 l 63 492 l 63 820 l 164 782 m 492 542 l 492 808 l 529 845 l 593 782 l 593 492 l 567 467 l 492 542 m 567 441 l 593 416 l 593 126 l 529 63 l 492 101 l 492 366 l 567 441 m 516 50 l 465 0 l 63 0 l 63 63 l 164 101 l 465 101 l 516 50 "},"?":{"x_min":63,"x_max":593,"ha":656,"o":"m 492 505 l 542 454 l 492 404 l 164 404 l 113 454 l 164 505 l 492 505 m 63 202 l 63 416 l 88 441 l 164 366 l 164 202 l 63 202 m 466 808 l 165 808 l 64 845 q 127 909 76 896 l 504 909 l 466 808 m 492 542 l 492 808 l 529 909 q 593 845 580 896 l 593 492 l 567 467 l 492 542 m 164 0 l 63 0 l 63 101 l 164 101 l 164 0 "},"H":{"x_min":63,"x_max":593,"ha":656,"o":"m 492 505 l 542 454 l 492 404 l 164 404 l 113 454 l 164 505 l 492 505 m 567 441 l 593 416 l 593 63 q 529 0 580 12 l 492 101 l 492 366 l 567 441 m 492 542 l 492 807 l 529 909 q 593 845 580 896 l 593 492 l 567 467 l 492 542 m 164 366 l 164 101 l 126 0 q 63 63 75 12 l 63 416 l 88 441 l 164 366 m 88 454 l 63 479 l 63 833 q 126 896 75 883 l 164 795 l 164 530 l 88 454 "},"c":{"x_min":62.984375,"x_max":542.9375,"ha":606,"o":"m 542 0 l 126 0 q 62 63 75 12 l 164 101 l 504 101 l 542 0 m 63 88 l 63 416 l 88 441 l 164 366 l 164 126 l 63 88 m 505 808 l 165 808 l 64 845 q 127 909 77 896 l 542 909 l 505 808 m 164 782 l 164 542 l 88 467 l 63 492 l 63 820 l 164 782 "},"&":{"x_min":62.984375,"x_max":643.796875,"ha":708,"o":"m 493 505 l 543 454 l 493 404 l 164 404 l 114 454 l 164 505 l 493 505 m 568 441 l 594 416 l 594 126 l 530 126 l 493 164 l 493 366 l 568 441 m 618 0 l 126 0 q 62 63 75 12 l 164 101 l 568 101 l 643 25 l 618 0 m 63 88 l 63 416 l 88 441 l 164 366 l 164 126 l 63 88 m 416 758 l 214 758 l 113 795 q 176 859 126 846 l 454 859 l 416 758 m 215 732 l 215 593 l 139 518 l 114 543 l 113 770 l 215 732 m 442 593 l 442 758 l 479 859 q 543 795 530 846 l 543 543 l 517 518 l 442 593 m 594 -25 l 594 -88 l 568 -114 l 493 -38 l 493 -25 l 594 -25 "},"I":{"x_min":63,"x_max":164,"ha":227,"o":"m 63 542 l 63 807 l 100 909 q 164 845 151 896 l 164 492 l 138 467 l 63 542 m 138 454 l 164 429 l 164 76 q 100 13 151 25 l 63 114 l 63 379 l 138 454 "},"•":{"x_min":63.125,"x_max":429.296875,"ha":492,"o":"m 246 278 q 116 331 170 278 q 63 461 63 385 q 116 590 63 536 q 246 644 170 644 q 375 590 321 644 q 429 461 429 536 q 375 331 429 385 q 246 278 321 278 "},"G":{"x_min":62.984375,"x_max":593,"ha":656,"o":"m 492 505 l 542 454 l 492 404 l 378 404 l 327 454 l 378 505 l 492 505 m 567 441 l 593 416 l 593 63 q 529 0 580 12 l 492 101 l 492 366 l 567 441 m 504 0 l 126 0 q 62 63 75 12 l 164 101 l 466 101 l 504 0 m 63 88 l 63 416 l 88 441 l 164 366 l 164 126 l 63 88 m 504 808 l 165 808 l 64 845 q 127 909 76 896 l 542 909 l 504 808 m 164 782 l 164 542 l 88 467 l 63 492 l 63 820 l 164 782 "},"(":{"x_min":63,"x_max":378.78125,"ha":442,"o":"m 328 808 l 189 808 l 138 858 l 189 909 l 328 909 l 378 858 l 328 808 m 88 467 l 63 492 l 63 782 l 126 845 l 164 808 l 164 542 l 88 467 m 378 50 l 328 0 l 189 0 l 138 50 l 189 101 l 328 101 l 378 50 m 164 366 l 164 101 l 126 63 l 63 126 l 63 416 l 88 441 l 164 366 "},"`":{"x_min":63.125,"x_max":290.40625,"ha":354,"o":"m 290 770 l 290 719 l 239 707 l 63 883 l 75 934 l 126 934 l 290 770 "},"U":{"x_min":62.984375,"x_max":593,"ha":656,"o":"m 567 441 l 593 416 l 593 63 q 529 0 580 12 l 492 101 l 492 366 l 567 441 m 504 0 l 126 0 q 62 63 75 12 l 164 101 l 466 101 l 504 0 m 63 88 l 63 416 l 88 441 l 164 366 l 164 126 l 63 88 m 492 542 l 492 807 l 529 909 q 593 845 580 896 l 593 492 l 567 467 l 492 542 m 88 454 l 63 479 l 63 833 q 126 896 75 883 l 164 795 l 164 530 l 88 454 "},"F":{"x_min":63,"x_max":542.9375,"ha":606,"o":"m 492 505 l 542 454 l 492 404 l 164 404 l 113 454 l 164 505 l 492 505 m 505 808 l 165 808 l 64 845 q 127 909 77 896 l 542 909 l 505 808 m 164 782 l 164 542 l 88 467 l 63 492 l 63 820 l 164 782 m 164 366 l 164 101 l 126 0 q 63 63 75 12 l 63 416 l 88 441 l 164 366 "},"r":{"x_min":63,"x_max":593,"ha":656,"o":"m 492 505 l 542 454 l 492 404 l 164 404 l 113 454 l 164 505 l 492 505 m 188 378 l 264 378 l 593 50 q 492 0 567 0 l 188 303 l 188 378 m 164 366 l 164 101 l 126 0 q 63 63 75 12 l 63 416 l 88 441 l 164 366 m 466 808 l 165 808 l 64 845 q 127 909 76 896 l 504 909 l 466 808 m 492 542 l 492 808 l 529 909 q 593 845 580 896 l 593 492 l 567 467 l 492 542 m 164 782 l 164 542 l 88 467 l 63 492 l 63 820 l 164 782 "},":":{"x_min":63,"x_max":164,"ha":227,"o":"m 164 202 l 63 202 l 63 303 l 164 303 l 164 202 m 164 606 l 63 606 l 63 707 l 164 707 l 164 606 "},"x":{"x_min":62.734375,"x_max":593.265625,"ha":657,"o":"m 341 441 l 397 441 l 592 50 q 491 0 567 0 l 341 305 l 341 441 m 342 603 l 492 909 q 593 858 568 909 l 398 467 l 342 467 l 342 603 m 314 305 l 163 0 q 62 50 88 0 l 257 441 l 314 441 l 314 305 m 315 467 l 258 467 l 63 858 q 164 909 88 909 l 315 602 l 315 467 "},"*":{"x_min":63.171875,"x_max":479.828125,"ha":543,"o":"m 221 542 l 221 643 l 271 694 l 322 643 l 322 542 l 410 593 l 479 574 l 460 504 l 373 454 l 460 404 l 479 334 l 410 315 l 322 366 l 322 265 l 271 215 l 221 265 l 221 366 l 132 315 l 63 334 l 82 404 l 169 454 l 82 504 l 63 574 l 132 593 l 221 542 "},"V":{"x_min":63,"x_max":593,"ha":656,"o":"m 88 454 l 63 479 l 63 832 q 126 896 75 883 l 164 794 l 164 529 l 88 454 m 492 529 l 492 794 l 529 896 q 593 832 580 883 l 593 479 l 567 454 l 492 529 m 315 151 l 315 0 l 63 328 l 63 404 l 88 429 l 164 353 l 315 151 m 492 353 l 567 429 l 593 404 l 593 328 l 340 0 l 340 151 l 492 353 "},"h":{"x_min":63,"x_max":593,"ha":656,"o":"m 492 505 l 542 454 l 492 404 l 164 404 l 113 454 l 164 505 l 492 505 m 567 441 l 593 416 l 593 63 q 529 0 580 12 l 492 101 l 492 366 l 567 441 m 492 542 l 492 807 l 529 909 q 593 845 580 896 l 593 492 l 567 467 l 492 542 m 164 366 l 164 101 l 126 0 q 63 63 75 12 l 63 416 l 88 441 l 164 366 m 88 454 l 63 479 l 63 833 q 126 896 75 883 l 164 795 l 164 530 l 88 454 "},"0":{"x_min":62.984375,"x_max":593,"ha":656,"o":"m 567 441 l 593 416 l 593 63 q 529 0 580 12 l 492 101 l 492 366 l 567 441 m 504 0 l 126 0 q 62 63 75 12 l 164 101 l 466 101 l 504 0 m 63 88 l 63 416 l 88 441 l 164 366 l 164 126 l 63 88 m 466 808 l 165 808 l 64 845 q 127 909 76 896 l 504 909 l 466 808 m 164 782 l 164 542 l 88 467 l 63 492 l 63 820 l 164 782 m 492 542 l 492 808 l 529 909 q 593 845 580 896 l 593 492 l 567 467 l 492 542 "},".":{"x_min":63,"x_max":164,"ha":227,"o":"m 164 0 l 63 0 l 63 101 l 164 101 l 164 0 "},"”":{"x_min":63,"x_max":367,"ha":430,"o":"m 164 707 l 113 657 l 63 707 l 63 909 l 164 909 l 164 707 m 367 708 l 316 658 l 266 708 l 266 910 l 367 910 l 367 708 "},"@":{"x_min":62.984375,"x_max":593,"ha":656,"o":"m 567 441 l 593 416 l 593 265 q 529 202 580 214 l 492 303 l 492 366 l 567 441 m 504 0 l 126 0 q 62 63 75 12 l 164 101 l 466 101 l 504 0 m 63 88 l 63 416 l 88 441 l 164 366 l 164 126 l 63 88 m 466 808 l 164 808 l 63 845 q 127 909 76 896 l 504 909 l 466 808 m 164 782 l 164 542 l 88 467 l 63 492 l 63 820 l 164 782 m 492 542 l 492 808 l 529 909 q 593 845 580 896 l 593 492 l 567 467 l 492 542 m 504 202 l 328 201 q 264 263 277 213 l 365 303 l 467 303 l 504 202 m 265 290 l 265 416 l 290 441 l 366 366 l 366 328 l 265 290 m 366 580 l 366 542 l 290 467 l 265 492 l 264 618 l 366 580 m 467 606 l 365 606 l 264 645 q 328 708 277 695 l 467 707 l 467 606 "},"f":{"x_min":63,"x_max":542.9375,"ha":606,"o":"m 492 505 l 542 454 l 492 404 l 164 404 l 113 454 l 164 505 l 492 505 m 505 808 l 165 808 l 64 845 q 127 909 77 896 l 542 909 l 505 808 m 164 782 l 164 542 l 88 467 l 63 492 l 63 820 l 164 782 m 164 366 l 164 101 l 126 0 q 63 63 75 12 l 63 416 l 88 441 l 164 366 "},";":{"x_min":63,"x_max":164,"ha":227,"o":"m 164 606 l 63 606 l 63 707 l 164 707 l 164 606 m 164 -101 l 113 -152 l 63 -101 l 63 100 l 164 100 l 164 -101 "},"“":{"x_min":63,"x_max":366,"ha":429,"o":"m 164 658 l 63 658 l 63 859 l 113 910 l 164 859 l 164 658 m 366 657 l 265 657 l 265 858 l 315 909 l 366 858 l 366 657 "},"i":{"x_min":63,"x_max":164,"ha":227,"o":"m 63 542 l 63 807 l 100 909 q 164 845 151 896 l 164 492 l 138 467 l 63 542 m 138 454 l 164 429 l 164 76 q 100 13 151 25 l 63 114 l 63 379 l 138 454 "},"6":{"x_min":62.984375,"x_max":593,"ha":656,"o":"m 492 505 l 542 454 l 492 404 l 164 404 l 113 454 l 164 505 l 492 505 m 567 441 l 593 416 l 593 63 q 529 0 580 12 l 492 101 l 492 366 l 567 441 m 504 0 l 126 0 q 62 63 75 12 l 164 101 l 466 101 l 504 0 m 63 88 l 63 416 l 88 441 l 164 366 l 164 126 l 63 88 m 504 808 l 165 808 l 64 845 q 127 909 76 896 l 542 909 l 504 808 m 164 782 l 164 542 l 88 467 l 63 492 l 63 820 l 164 782 "},"A":{"x_min":63,"x_max":593,"ha":656,"o":"m 492 505 l 542 454 l 492 404 l 164 404 l 113 454 l 164 505 l 492 505 m 567 441 l 593 416 l 593 63 q 529 0 580 12 l 492 101 l 492 366 l 567 441 m 466 808 l 165 808 l 64 845 q 127 909 76 896 l 504 909 l 466 808 m 164 782 l 164 542 l 88 467 l 63 492 l 63 820 l 164 782 m 492 542 l 492 808 l 529 909 q 593 845 580 896 l 593 492 l 567 467 l 492 542 m 164 366 l 164 101 l 126 0 q 63 63 75 12 l 63 416 l 88 441 l 164 366 "},"‘":{"x_min":63,"x_max":164,"ha":227,"o":"m 164 657 l 63 657 l 63 858 l 113 909 l 164 858 l 164 657 "},"n":{"x_min":63,"x_max":593,"ha":656,"o":"m 164 366 l 164 101 l 126 0 q 63 63 75 12 l 63 416 l 88 441 l 164 366 m 467 530 l 378 530 l 189 719 l 189 795 l 265 795 l 467 593 l 467 530 m 567 441 l 593 416 l 593 63 q 529 0 580 12 l 492 101 l 492 366 l 567 441 m 492 529 l 492 794 l 529 896 q 593 832 580 883 l 593 479 l 567 454 l 492 529 m 88 454 l 63 479 l 63 832 q 126 896 75 883 l 164 794 l 164 529 l 88 454 "},"O":{"x_min":63,"x_max":593,"ha":656,"o":"m 467 808 l 189 808 l 138 858 l 189 909 l 467 909 l 517 858 l 467 808 m 492 542 l 492 808 l 529 845 l 593 782 l 593 492 l 567 467 l 492 542 m 567 441 l 593 416 l 593 126 l 529 63 l 492 101 l 492 366 l 567 441 m 88 467 l 63 492 l 63 782 l 126 845 l 164 808 l 164 542 l 88 467 m 517 50 l 467 0 l 189 0 l 138 50 l 189 101 l 467 101 l 517 50 m 164 366 l 164 101 l 126 63 l 63 126 l 63 416 l 88 441 l 164 366 "},"3":{"x_min":62.703125,"x_max":593,"ha":656,"o":"m 492 505 l 542 454 l 492 404 l 163 404 l 113 454 l 163 505 l 492 505 m 567 441 l 593 416 l 593 63 q 529 0 580 12 l 492 101 l 492 366 l 567 441 m 504 0 l 125 0 q 62 63 75 12 l 163 101 l 466 101 l 504 0 m 466 808 l 164 808 l 63 845 q 127 909 76 896 l 504 909 l 466 808 m 492 542 l 492 808 l 529 909 q 593 845 580 896 l 593 492 l 567 467 l 492 542 "},"]":{"x_min":62.84375,"x_max":328,"ha":391,"o":"m 302 441 l 328 416 l 328 63 q 264 0 315 12 l 227 101 l 227 366 l 302 441 m 201 807 l 138 807 l 62 883 l 88 909 l 239 909 l 201 807 m 227 542 l 227 807 l 264 909 q 328 845 315 896 l 328 492 l 302 467 l 227 542 m 239 0 l 88 0 l 62 25 l 138 101 l 201 101 l 239 0 "},"m":{"x_min":63,"x_max":594,"ha":657,"o":"m 379 492 l 328 441 l 278 492 l 278 782 l 379 782 l 379 492 m 568 441 l 594 416 l 594 63 q 530 0 581 12 l 493 101 l 493 366 l 568 441 m 467 808 l 165 808 l 64 845 q 127 909 76 896 l 505 909 l 467 808 m 164 782 l 164 542 l 88 467 l 63 492 l 63 820 l 164 782 m 493 542 l 493 808 l 530 909 q 594 845 581 896 l 594 492 l 568 467 l 493 542 m 164 366 l 164 101 l 126 0 q 63 63 75 12 l 63 416 l 88 441 l 164 366 "},"9":{"x_min":63,"x_max":593,"ha":656,"o":"m 492 505 l 542 454 l 492 404 l 164 404 l 113 454 l 164 505 l 492 505 m 567 441 l 593 416 l 593 63 q 529 0 580 12 l 492 101 l 492 366 l 567 441 m 504 0 l 126 0 q 63 63 75 12 l 164 101 l 466 101 l 504 0 m 466 808 l 165 808 l 64 845 q 127 909 76 896 l 504 909 l 466 808 m 164 782 l 164 542 l 88 467 l 63 492 l 63 820 l 164 782 m 492 542 l 492 808 l 529 909 q 593 845 580 896 l 593 492 l 567 467 l 492 542 "},"l":{"x_min":63,"x_max":593.296875,"ha":657,"o":"m 164 366 l 164 101 l 126 0 q 63 63 75 12 l 63 416 l 88 441 l 164 366 m 189 101 l 492 101 l 593 63 q 530 0 580 12 l 151 0 l 189 101 m 88 467 l 63 492 l 63 845 q 126 909 75 896 l 164 807 l 164 542 l 88 467 "},"8":{"x_min":62.984375,"x_max":593,"ha":656,"o":"m 492 505 l 542 454 l 492 404 l 164 404 l 113 454 l 164 505 l 492 505 m 567 441 l 593 416 l 593 63 q 529 0 580 12 l 492 101 l 492 366 l 567 441 m 504 0 l 126 0 q 62 63 75 12 l 164 101 l 466 101 l 504 0 m 63 88 l 63 416 l 88 441 l 164 366 l 164 126 l 63 88 m 466 808 l 165 808 l 64 845 q 127 909 76 896 l 504 909 l 466 808 m 164 782 l 164 542 l 88 467 l 63 492 l 63 820 l 164 782 m 492 542 l 492 808 l 529 909 q 593 845 580 896 l 593 492 l 567 467 l 492 542 "},"p":{"x_min":63,"x_max":593,"ha":656,"o":"m 492 505 l 542 454 l 492 404 l 164 404 l 113 454 l 164 505 l 492 505 m 467 808 l 164 808 l 63 845 l 63 909 l 467 909 l 517 858 l 467 808 m 164 782 l 164 542 l 88 467 l 63 492 l 63 820 l 164 782 m 492 542 l 492 808 l 529 845 l 593 782 l 593 492 l 567 467 l 492 542 m 164 366 l 164 101 l 126 0 q 63 63 75 12 l 63 416 l 88 441 l 164 366 "},"4":{"x_min":63,"x_max":593,"ha":656,"o":"m 492 505 l 542 454 l 492 404 l 164 404 l 113 454 l 164 505 l 492 505 m 567 441 l 593 416 l 593 63 q 529 0 580 12 l 492 101 l 492 366 l 567 441 m 164 820 l 164 542 l 88 467 l 63 492 l 63 858 l 164 820 m 492 542 l 492 807 l 529 909 q 593 845 580 896 l 593 492 l 567 467 l 492 542 "},"R":{"x_min":63,"x_max":593,"ha":656,"o":"m 492 505 l 542 454 l 492 404 l 164 404 l 113 454 l 164 505 l 492 505 m 188 378 l 264 378 l 593 50 q 492 0 567 0 l 188 303 l 188 378 m 164 366 l 164 101 l 126 0 q 63 63 75 12 l 63 416 l 88 441 l 164 366 m 466 808 l 165 808 l 64 845 q 127 909 76 896 l 504 909 l 466 808 m 492 542 l 492 808 l 529 909 q 593 845 580 896 l 593 492 l 567 467 l 492 542 m 164 782 l 164 542 l 88 467 l 63 492 l 63 820 l 164 782 "},"o":{"x_min":63,"x_max":593,"ha":656,"o":"m 467 808 l 189 808 l 138 858 l 189 909 l 467 909 l 517 858 l 467 808 m 492 542 l 492 808 l 529 845 l 593 782 l 593 492 l 567 467 l 492 542 m 567 441 l 593 416 l 593 126 l 529 63 l 492 101 l 492 366 l 567 441 m 88 467 l 63 492 l 63 782 l 126 845 l 164 808 l 164 542 l 88 467 m 517 50 l 467 0 l 189 0 l 138 50 l 189 101 l 467 101 l 517 50 m 164 366 l 164 101 l 126 63 l 63 126 l 63 416 l 88 441 l 164 366 "},"5":{"x_min":63,"x_max":593,"ha":656,"o":"m 492 505 l 542 454 l 492 404 l 164 404 l 113 454 l 164 505 l 492 505 m 567 441 l 593 416 l 593 63 q 529 0 580 12 l 492 101 l 492 366 l 567 441 m 504 0 l 126 0 q 63 63 75 12 l 164 101 l 466 101 l 504 0 m 504 808 l 165 808 l 64 845 q 127 909 76 896 l 542 909 l 504 808 m 164 782 l 164 542 l 88 467 l 63 492 l 63 820 l 164 782 "}}}
